<svg id="eimj6t7yve31" xmlns="http://www.w3.org/2000/svg" xmlns:xlink="http://www.w3.org/1999/xlink" viewBox="0 0 1479 1312" shape-rendering="geometricPrecision" text-rendering="geometricPrecision"><defs><linearGradient id="eimj6t7yve32-fill" x1="0.135348" y1="0.131735" x2="0.873834" y2="0.87022" spreadMethod="pad" gradientUnits="objectBoundingBox" gradientTransform="translate(0 0)"><stop id="eimj6t7yve32-fill-0" offset="0%" stop-color="#f1f5f9"/><stop id="eimj6t7yve32-fill-1" offset="100%" stop-color="#cbd5e1"/></linearGradient><linearGradient id="eimj6t7yve33-fill" x1="0.164729" y1="0.197189" x2="0.883283" y2="0.915743" spreadMethod="pad" gradientUnits="objectBoundingBox" gradientTransform="translate(0 0)"><stop id="eimj6t7yve33-fill-0" offset="0%" stop-color="#1e293b"/><stop id="eimj6t7yve33-fill-1" offset="100%" stop-color="#020617"/></linearGradient><linearGradient id="eimj6t7yve34-fill" x1="0.011119" y1="0.084434" x2="0.830645" y2="0.658273" spreadMethod="pad" gradientUnits="objectBoundingBox" gradientTransform="translate(0 0)"><stop id="eimj6t7yve34-fill-0" offset="0%" stop-color="#ea580c"/><stop id="eimj6t7yve34-fill-1" offset="100%" stop-color="#fdba74"/></linearGradient></defs><path d="M1412.276611,636.672729c11.047119,24.153321,22.652832,47.682618,32.472046,71.935181c7.353394,18.16211,13.207886,37.042847,18.242066,55.998779c4.416748,16.631836,7.488403,33.714783,9.808471,50.781373c2.036744,14.982971,3.184571,30.233093,2.97815,45.341369-.334473,24.459961-5.011231,48.184143-14.587525,70.990601-11.827392,28.167907-26.847046,54.467041-45.938965,78.136047-13.667846,16.944458-28.542358,33.083008-44.206787,48.2052-17.658569,17.047119-37.123413,32.104492-57.373657,46.140869-22.551269,15.631348-45.929321,29.784913-70.130615,42.671021-35.701172,19.009399-72.557739,35.442017-110.607178,49.074463-26.130981,9.362182-52.382324,18.527099-78.995361,26.369751-32.709046,9.638794-65.657959,18.633911-98.856995,26.393432-37.063659,8.662598-74.478027,15.860962-111.828735,23.24646-24.133057,4.771973-48.39856,8.896241-72.655457,13.011353-20.914795,3.548218-41.87677,6.841431-62.867065,9.911011-9.893982,1.447143-19.907593,2.065673-29.859375,3.130859-15.159363,1.622559-30.297669,3.458008-45.472839,4.911133-10.003235.957886-20.046326,1.739258-30.087586,2.015503-30.525329.840088-61.061462,1.991577-91.587463,1.837646-18.066559-.091064-36.129151-2.328247-54.179383-3.777099-10.140197-.813721-20.290588-1.700562-30.365417-3.074829-11.144806-1.520386-22.36084-3-33.276917-5.618409-25.419616-6.097778-50.886261-12.168579-75.924865-19.623901-15.511078-4.618408-30.513001-11.222046-45.304322-17.906494-15.421203-6.969116-30.399231-14.943604-45.417434-22.773194-17.717316-9.236694-34.232346-20.324951-49.252915-33.541992-7.31221-6.434326-14.714081-12.80249-21.606796-19.670898-17.262924-17.201538-33.065338-35.756958-46.048302-56.358399-12.147453-19.275634-23.437996-39.141235-34.171341-59.245971-14.118167-26.445069-24.983745-54.399048-33.392841-83.109558-8.121765-27.729432-14.981085-55.855225-21.521744-84.009766-3.130989-13.477417-4.479405-27.394226-6.206931-41.16571-1.938202-15.450989-3.598537-30.944214-4.988833-46.454163-1.015862-11.332703-1.712271-22.714172-1.998159-34.08783-.559494-22.258911-1.343871-44.540405-.874035-66.788086.381865-18.08197,2.395891-36.133178,3.808282-54.188476.88408-11.301636,1.678824-22.625061,3.086812-33.866943c1.601819-12.789429,3.706466-25.52179,5.839727-38.237427c2.561409-15.2677,5.027899-30.565857,8.186611-45.715088c3.616083-17.342774,7.562542-34.637818,12.074184-51.766937c4.671727-17.736878,9.652733-35.431153,15.480809-52.814698c7.121193-21.2406,14.604271-42.410827,23.141143-63.112365c9.677292-23.467133,19.939598-46.760102,31.309319-69.446289c16.450256-32.823426,35.475586-64.211594,58.213974-93.148667c11.045044-14.056045,22.493088-27.824096,34.315979-41.231064c9.216659-10.451522,18.895538-20.569854,29.067368-30.090103c26.001144-24.335586,54.317337-45.765228,85.029739-63.783493c27.579285-16.180115,56.547027-29.550796,86.809967-40.071976c24.616821-8.558254,49.808044-14.917135,75.331543-19.904744c12.174805-2.379112,24.563385-3.797102,36.91217-5.116404c12.755005-1.362705,25.564942-2.364897,38.376953-2.997485c13.748047-.678807,27.579529-1.650222,41.278077-.847117c17.141906,1.004977,34.255798,3.22081,51.250976,5.782128c16.086365,2.424353,32.181091,5.2646,47.94513,9.223835c15.717285,3.947484,31.276794,8.84813,46.45874,14.525414c21.910339,8.193382,43.741577,16.755871,65.005859,26.475136c21.318909,9.744247,42.301148,20.394142,62.696594,31.943908c21.945191,12.427353,43.508912,25.665215,64.386109,39.808472c28.343078,19.201126,56.128601,39.256668,83.656738,59.61702c15.271057,11.294784,29.609314,23.862228,44.226135,36.026642c15.148194,12.606628,30.181275,25.353424,45.151123,38.171493c6.891236,5.900696,13.707642,11.915436,20.220459,18.226715c26.97583,26.140808,54.049317,52.1875,80.625855,78.73053c14.393921,14.375732,28.074219,29.487915,41.682007,44.62265c12.973999,14.429871,25.721557,29.085449,38.04187,44.074799c12.250122,14.903961,24.175903,30.101837,35.645386,45.613403c15.416259,20.849487,30.873657,41.716858,45.163208,63.33667c12.735717,19.268921,23.949585,39.546631,35.741699,59.434387c3.404053,5.741028,6.485962,11.672791,9.92456,17.830322M504.774994,188.280777c-26.251892,8.716797-50.615326,21.275375-73.647369,36.467453-49.165986,32.430237-90.397614,73.484741-127.616242,118.704712-66.588226,80.903534-116.286789,170.946899-147.175262,271.367615-22.723191,73.874755-41.646759,148.385803-45.591576,225.981628-2.310127,45.440918.852226,90.185791,17.202591,133.230896c9.665199,25.445435,24.616814,47.110352,45.694603,64.463135c27.306412,22.480713,59.533966,34.345093,93.28157,42.45166c41.815491,10.044556,84.512299,13.099487,127.365204,13.888306c56.021546,1.031372,111.919403-1.797852,167.715515-6.617798c38.152527-3.295655,76.3443-6.338501,114.386414-10.657837c39.348877-4.467651,78.717834-9.280762,117.746948-15.895996c39.503601-6.695679,78.849976-14.747193,117.815918-24.080689c50.460632-12.087036,99.445435-28.864746,145.208069-53.856384c28.535522-15.583862,54.695679-34.296265,75.887817-59.390747c24.584595-29.111572,37.830323-62.896423,40.8125-100.559143c2.515015-31.761292-4.264404-62.25647-15.460815-91.858032-14.459229-38.228394-34.765503-73.381409-57.037354-107.441346-36.520752-55.850952-77.678955-108.250793-119.617981-160.071563-39.335449-48.60376-79.815124-96.157471-125.036499-139.476624-30.852172-29.554474-63.307251-57.145843-98.736816-81.131149-28.788208-19.489151-59.045349-36.202026-91.650818-48.434158-26.652344-9.998764-54.152771-16.397248-82.607056-18.121521-26.745849-1.620774-52.782653,2.421005-78.939361,11.037582Z" fill="url(#eimj6t7yve32-fill)"/><path d="M505.154846,188.171616c25.776856-8.507416,51.81366-12.549195,78.559509-10.928421c28.454285,1.724273,55.954712,8.122757,82.607056,18.121521c32.605469,12.232132,62.86261,28.945007,91.650818,48.434158c35.429565,23.985306,67.884644,51.576675,98.736816,81.131149c45.221375,43.319153,85.70105,90.872864,125.036499,139.476624c41.939026,51.82077,83.097229,104.220611,119.617981,160.071563c22.271851,34.059937,42.578125,69.212952,57.037354,107.441346c11.196411,29.601562,17.97583,60.09674,15.460815,91.858032-2.982177,37.66272-16.227905,71.447571-40.8125,100.559143-21.192138,25.094482-47.352295,43.806885-75.887817,59.390747-45.762634,24.991638-94.747437,41.769348-145.208069,53.856384-38.965942,9.333496-78.312317,17.38501-117.815918,24.080689-39.029114,6.615234-78.398071,11.428345-117.746948,15.895996-38.042114,4.319336-76.233887,7.362182-114.386414,10.657837-55.796112,4.819946-111.693969,7.64917-167.715515,6.617798-42.852905-.788819-85.549713-3.84375-127.365204-13.888306-33.747604-8.106567-65.975158-19.970947-93.28157-42.45166-21.077789-17.352783-36.029404-39.0177-45.694603-64.463135-16.350365-43.045105-19.512718-87.789978-17.202591-133.230896c3.944817-77.595825,22.868385-152.106873,45.591576-225.981628c30.888473-100.420716,80.587036-190.464081,147.175262-271.367615c37.218628-45.219971,78.450256-86.274475,127.616242-118.704712c23.032043-15.192078,47.395477-27.750656,74.027221-36.576614M650.501,882.405962c1.23681-.670889.882207-.598852,2.22-1.3c4.796447-2.972962,8.565499-5.33875,13.270699-8.449773c85.731079-56.684692,171.500183-113.312256,257.089966-170.209656c12.077759-8.028991,22.69574-17.896484,29.856445-30.96051c6.387513-11.65332,6.575867-23.147888-.638061-34.3396-6.369934-9.882263-15.778137-16.548462-25.759949-22.318481-52.962036-30.614624-105.980102-61.132202-159.256592-91.674194-.279785-.001221-.556884-.026123-1.252929-.674988-.697571-.449768-1.371888-.941345-2.095948-1.343384-93.173278-51.731628-186.343811-103.468323-279.53479-155.168121-12.28482-6.815308-24.343872-14.084839-38.226288-17.528015-12.704528-3.151001-26.092285.335998-32.677825,9.126159-6.006989,8.017883-9.413208,17.171875-10.385804,27.043732-1.352569,13.728363-2.383941,27.497131-3.176544,41.270233-1.759796,30.578796-3.464142,61.162964-4.847626,91.760529-1.023101,22.626525-1.895721,45.273315-2.142089,67.91864-.460175,42.297668-.516999,84.60083-.528962,126.901672-.004303,15.155701.444397,30.317139.968964,45.466126c1.106628,31.957153,2.456116,63.905822,3.600555,95.861755c1.150422,32.123901,1.995758,64.260071,3.390076,96.372803.305451,7.035583,1.755859,14.173462,3.738861,20.954345c5.051178,17.272217,17.963745,25.834839,35.920563,24.977906c12.558716-.599244,24.089416-4.656494,34.863373-10.586487c19.888763-10.946533,39.597534-22.23645,59.145385-33.782776c37.403809-22.093262,74.44759-44.442061,112.33852-66.817915c1.119385-.761353,1.087522-.614231,2.94-1.84.827855-.513606.691059-.359151,1.18-.66Z" fill="url(#eimj6t7yve33-fill)"/><path d="M651.546178,881.843357c-22.558262,13.532143-34.470233,20.795069-117.503698,69.88052-19.543719,11.553321-39.256622,22.836243-59.145385,33.782776-10.773957,5.929993-22.304657,9.987243-34.863373,10.586487-17.956818.856933-30.869385-7.705689-35.920563-24.977906-1.983002-6.780883-3.43341-13.918762-3.738861-20.954345-1.394318-32.112732-2.239654-64.248902-3.390076-96.372803-1.144439-31.955933-2.493927-63.904602-3.600555-95.861755-.524567-15.148987-.973267-30.310425-.968964-45.466126.011963-42.300842.068787-84.604004.528962-126.901672.246368-22.645325,1.118988-45.292115,2.142089-67.91864c1.383484-30.597565,3.08783-61.181733,4.847626-91.760529.792603-13.773102,1.823975-27.54187,3.176544-41.270233.972596-9.871857,4.378815-19.025849,10.385804-27.043732c6.58554-8.790161,19.973297-12.27716,32.677825-9.126159c13.882416,3.443176,25.941468,10.712707,38.226288,17.528015c93.190979,51.699798,183.616063,101.846766,276.789341,153.578394c1.361322.875535,4.773764,2.486769,6.38,3.62-.01511,2.742727.555434,17.838616-.79948,32.245417-2.807645,29.8537-3.602274,35.175117-7.682291,64.192708-5.024103,35.732049-14.308146,70.361002-26.236979,104.361979-19.893677,56.703796-36.760044,95.435059-72.18967,144.042969-.832642,1.142212-8.539511,12.504618-9.114584,13.834635Z" fill="url(#eimj6t7yve34-fill)"/><path d="M767.561401,523.144531c52.998597,30.551209,106.016663,61.068787,158.978699,91.683411c9.981812,5.770019,19.390015,12.436218,25.759949,22.318481c7.213928,11.191712,7.025574,22.68628.638061,34.3396-7.160705,13.064026-17.778686,22.931519-29.856445,30.96051-85.589783,56.8974-171.208578,113.752954-257.089966,170.209656-4.511744,2.96593-9.183675,6.570305-15.202355,9.633878c30.613159-43.317566,55.963891-90.64639,75.004723-139.783719c14.112488-36.419373,25.180848-73.788575,31.515015-112.325806c4.199097-25.547485,6.759277-51.380127,9.49585-77.144287c1.049316-9.879212.550048-19.922974.756469-29.891724Z" fill="#ea580c"/></svg>
