<svg class=""
    xmlns="http://www.w3.org/2000/svg" version="1.1"
    xmlns:xlink="http://www.w3.org/1999/xlink"
    xmlns:svgjs="http://svgjs.dev/svgjs" viewBox="0 0 1000 1125">
    <g transform="matrix(1,0,0,1,1.7053025658242404e-13,0)">
        <svg viewBox="0 0 320 360" data-background-color="#ffffff" preserveAspectRatio="xMidYMid meet" height="1125" width="1000"
            xmlns="http://www.w3.org/2000/svg"
            xmlns:xlink="http://www.w3.org/1999/xlink">
            <g id="tight-bounds" transform="matrix(1,0,0,1,0,0)">
                <svg viewBox="0 0 320 360" height="360" width="320">
                    <g>
                        <svg></svg>
                    </g>
                    <g>
                        <svg viewBox="0 0 320 360" height="360" width="320">
                            <g>
                                <path xmlns="http://www.w3.org/2000/svg" d="M20.961 227.22l3.726 4.658-1.863-6.056c-0.466-2.795-3.726 0.466-1.863 1.398M25.153 224.425c1.397 2.329 2.795 4.658 2.795 6.987 0 3.261 2.795 4.658 5.123 5.589-3.261-3.726-5.124-13.974-7.918-12.576M204.017 26.929c7.918 0 15.371-0.932 23.756 0.931 20.495 5.124 37.729 15.371 49.374 29.811l32.606 52.169c1.397 13.042 4.192 27.482 3.726 43.319 3.261 0 2.795-4.658 6.521-5.59-3.726 9.316-5.59 20.961-6.521 34.469-2.329-7.453 0-18.632 0.466-24.687-3.261 5.124-5.124 1.397-5.124-0.932 0.466-3.726-1.397-3.261-2.795-4.658-5.124-4.658-8.384-9.782-12.11-17.7 2.329-6.055 2.795-14.905-4.658-19.563-2.329-1.397-5.124-3.726-6.521-7.453-1.863-5.124-5.124-11.179-4.193-19.097 0.466-2.329-6.987 5.124-11.179 1.863-18.166-12.576-36.332-27.016-58.224-39.127-11.645 0-20.029-4.192-24.221-9.316-3.726-4.658-0.932-10.713 4.658-11.179 3.261 0 6.987-0.932 9.782 0.932 0.466-1.863 2.329-4.192 4.657-4.192M157.904 16.215l0.932 0.466c4.658 0.932 6.987 7.453 12.11 5.124 0 3.261 0.466 6.521-0.466 8.85-1.397 3.726-5.59 3.726-8.85 3.726-31.208-1.863-49.374 11.179-68.471 22.358-5.124 3.261-10.713 5.59-14.906 9.782-20.029 18.632-41.921 35.866-47.045 70.335l-4.192 38.195c-0.466 4.192-5.124 8.384-4.192 13.508l3.26 22.824c-3.261-3.261-5.124 0.932-4.192 2.795 0.466 1.397 2.329 6.055 5.124 1.863 3.726 6.987 7.453 20.495 12.576 26.55 15.837 18.632 36.332 35.4 53.101 52.169 4.192-0.932 7.453-0.932 8.384-3.727 1.397 2.795-1.397 5.59-3.726 6.056 7.453 4.658 15.837 8.85 27.016 9.781 14.44 0.932 27.948 3.261 40.524 6.522 6.521-1.863 13.042-2.795 20.029-3.261 2.329 0 3.726-3.726 6.521-4.658l0.466-4.658c2.795 4.192 2.329-1.397 0.466-4.192 3.261 2.795 4.192 5.124 5.589 6.987 0-1.397 3.726-6.521 3.727-0.466l0.931-6.055c1.397-0.932 1.863 5.124 3.261 0.931 1.397-4.192 4.192-0.932 6.987-2.329-0.932 1.863-0.466 5.59 2.794 3.261l3.727-3.261c2.329 5.59 6.055 3.261 7.918 2.329 20.495-13.042 40.99-28.413 60.553-43.784l-0.466 6.055 2.329-7.453c2.329 2.329 4.192 0.466 5.124-0.931 2.795-4.658 6.521-9.316 12.577-13.508-7.453 20.029-16.303 35.866-27.482 48.908l-4.658 5.59c0 3.261-0.932 7.453-4.658 7.918-1.863 0.466-5.59-0.932-8.384 1.863-1.397 1.863 3.261 5.59-0.466 2.795-3.261-2.329-6.521 0-10.248 0.932-2.795 0.932 1.863 3.726 2.795 5.589 0.932 1.863 1.863 3.726 1.398 6.056l-5.124-5.59c-6.055 3.261-9.782 9.316-14.906 13.974-2.329 1.863-1.397 5.124-1.397 7.918-3.261 0-6.987-0.932-8.85 0.932-1.397 1.863-0.932 4.658-0.932 7.453-4.658-0.466-5.124-7.453-9.315-6.056-4.192 0.932-8.85 1.397-12.577 3.727 2.795 5.59-4.658 2.329-3.726 3.26-6.987-4.192-13.042-7.453-20.495-4.658-15.837-5.124-35.4-2.795-49.84-0.931 0-2.329 0.466-4.658-0.466-5.124-0.932 2.329-3.726 1.397-3.26 1.397-8.85-6.055-17.7-9.782-27.016-14.905-8.384 0.932-16.303-3.261-18.632-5.59-6.521-6.055-13.974-2.795-20.029-4.192-13.042-3.261-17.7-16.769-19.098-26.084-0.932-4.658-4.658-6.521-6.055-6.056-6.055-19.563-15.371-37.263-22.824-55.429-1.863-4.658-1.397-9.316-1.397-14.44 2.329 0.932 4.658 0.466 4.192-2.794-2.329-15.371-7.918-27.016-13.974-38.195 3.261-15.837 3.726-34.469 11.179-48.443 6.521-12.576 18.632-19.098 27.016-29.811 2.795-3.726 2.795-8.85 5.59-12.11 9.316-9.316 18.632-19.098 28.879-27.482 4.658-3.726 10.247 0 17.234-1.397 2.329-8.384 11.645-15.837 20.495-13.508 3.726 0.932 11.179-8.85 13.508-9.782 3.726-1.397 1.863 3.726 1.863 6.987 8.85-6.987 20.961-10.713 32.14-14.906" fill="#fbbf24" fill-rule="nonzero" stroke="none" stroke-width="1" stroke-linecap="butt" stroke-linejoin="miter" stroke-miterlimit="10" stroke-dasharray="" stroke-dashoffset="0" font-family="none" font-weight="none" font-size="none" text-anchor="none" style="mix-blend-mode: normal" data-fill-palette-color="tertiary"></path>
                            </g>
                            <g transform="matrix(1,0,0,1,64,109.70717467154353)">
                                <svg viewBox="0 0 192 140.58565065691295" height="140.58565065691295" width="192">
                                    <g>
                                        <svg viewBox="0 0 192 140.58565065691295" height="140.58565065691295" width="192">
                                            <g>
                                                <svg viewBox="0 0 192 140.58565065691295" height="140.58565065691295" width="192">
                                                    <g transform="matrix(1,0,0,1,0,104.62954239063643)">
                                                        <svg viewBox="0 0 192 35.956108266276516" height="35.956108266276516" width="192">
                                                            <g>
                                                                <svg viewBox="0 0 192 35.956108266276516" height="35.956108266276516" width="192">
                                                                    <g>
                                                                        <svg viewBox="0 0 192 35.956108266276516" height="35.956108266276516" width="192">
                                                                            <g transform="matrix(1,0,0,1,0,0)">
                                                                                <svg width="192" viewBox="1.6500000953674316 -37.5 212.8300018310547 38.400001525878906" height="35.956108266276516" data-palette-color="#ff6600">
                                                                                    <path d="M22.8-31.2L22.8-31.2Q22.8-29.3 21.98-28.13 21.15-26.95 19.6-26.95L19.6-26.95Q18.2-26.95 17.1-28L17.1-28Q17.8-28.5 18.18-29.45 18.55-30.4 18.55-31.4L18.55-31.4Q18.55-32.95 17.55-33.95 16.55-34.95 14.5-34.95L14.5-34.95Q12.25-34.95 11.25-33.7 10.25-32.45 10.25-30.35L10.25-30.35Q10.25-27.9 11.43-26.35 12.6-24.8 14.35-23.58 16.1-22.35 18.13-21.25 20.15-20.15 21.9-18.65 23.65-17.15 24.83-15.03 26-12.9 26-9.6L26-9.6Q26-6.8 25.08-4.8 24.15-2.8 22.55-1.53 20.95-0.25 18.75 0.33 16.55 0.9 13.95 0.9L13.95 0.9Q11.65 0.9 9.43 0.43 7.2-0.05 5.48-1.13 3.75-2.2 2.7-3.98 1.65-5.75 1.65-8.3L1.65-8.3Q1.65-10 2.13-11.4 2.6-12.8 3.43-13.75 4.25-14.7 5.35-15.23 6.45-15.75 7.65-15.75L7.65-15.75Q8.25-15.75 8.95-15.6 9.65-15.45 10.35-15.08 11.05-14.7 11.65-14.05 12.25-13.4 12.6-12.45L12.6-12.45Q11.7-12.45 10.8-12.25 9.9-12.05 9.18-11.55 8.45-11.05 8-10.18 7.55-9.3 7.55-7.95L7.55-7.95Q7.55-5.35 9.15-4.23 10.75-3.1 13.15-3.1L13.15-3.1Q15.55-3.1 16.85-4.25 18.15-5.4 18.15-8.2L18.15-8.2Q18.15-10.8 17.07-12.6 16-14.4 14.35-15.75 12.7-17.1 10.83-18.28 8.95-19.45 7.3-20.83 5.65-22.2 4.58-24.05 3.5-25.9 3.5-28.6L3.5-28.6Q3.5-32.95 6.4-35.23 9.3-37.5 14.3-37.5L14.3-37.5Q15-37.5 16.43-37.38 17.85-37.25 19.28-36.63 20.7-36 21.75-34.73 22.8-33.45 22.8-31.2ZM41.5-15.15L41.5-15.15Q41.5-18.15 40.85-19.4 40.2-20.65 38.95-20.65L38.95-20.65Q38.2-20.65 37.67-20.25 37.15-19.85 36.8-19.2 36.45-18.55 36.25-17.73 36.05-16.9 36-16.05L36-16.05 36 0 28.8 0 28.8-34 36-35 36-22.4Q37.15-24.15 38.6-24.68 40.05-25.2 41.35-25.2L41.35-25.2Q42.75-25.2 44.02-24.75 45.3-24.3 46.27-23.23 47.25-22.15 47.8-20.38 48.35-18.6 48.35-16L48.35-16Q48.35-15.35 48.32-14.38 48.3-13.4 48.25-12.4 48.2-11.4 48.17-10.45 48.15-9.5 48.15-8.85L48.15-8.85Q48.15-6.7 48.67-5.63 49.2-4.55 50.75-4.55L50.75-4.55Q51.6-4.55 52.15-4.88 52.7-5.2 53.05-5.8 53.4-6.4 53.62-7.2 53.85-8 54.05-8.95L54.05-8.95 56.15-8.95Q55.75-5.95 54.95-4.13 54.15-2.3 53.12-1.33 52.1-0.35 50.95-0.03 49.8 0.3 48.7 0.3L48.7 0.3Q44.85 0.3 43.12-2.25 41.4-4.8 41.4-9.05L41.4-9.05Q41.4-9.5 41.42-10.33 41.45-11.15 41.45-12.05 41.45-12.95 41.47-13.8 41.5-14.65 41.5-15.15ZM63.9-25.25L63.9-25.25Q67.35-25.25 69.4-23.38 71.45-21.5 72.05-17.35L72.05-17.35 72.4-17.35Q73.1-17.35 73.97-17.6 74.85-17.85 75.8-18.25 76.75-18.65 77.65-19.2 78.55-19.75 79.25-20.35L79.25-20.35 80-19Q79.45-18.2 78.62-17.55 77.8-16.9 76.75-16.38 75.7-15.85 74.55-15.48 73.4-15.1 72.25-14.9L72.25-14.9Q72.3-14.55 72.3-14.23 72.3-13.9 72.3-13.55L72.3-13.55Q72.3-10.65 71.8-8.13 71.3-5.6 70.12-3.73 68.95-1.85 67.1-0.78 65.25 0.3 62.55 0.3L62.55 0.3Q60.7 0.3 59.02-0.28 57.35-0.85 56.05-2.18 54.75-3.5 53.97-5.68 53.2-7.85 53.2-11L53.2-11Q53.2-13.15 53.65-15.63 54.1-18.1 55.3-20.25 56.5-22.4 58.57-23.83 60.65-25.25 63.9-25.25ZM63.95-4.4L63.95-4.4Q65-4.4 65.77-5.13 66.55-5.85 67.05-7.13 67.55-8.4 67.77-10.15 68-11.9 68-13.95L68-13.95 68-14.7Q66.75-14.95 66.4-15.65 66.05-16.35 66.05-17.2L66.05-17.2Q66.05-18.25 66.4-18.8 66.75-19.35 67.3-19.55L67.3-19.55Q66.75-21.25 65.97-21.75 65.2-22.25 64.65-22.25L64.65-22.25Q63.55-22.25 62.77-21.23 62-20.2 61.5-18.63 61-17.05 60.77-15.15 60.55-13.25 60.55-11.5L60.55-11.5Q60.55-9.25 60.87-7.85 61.2-6.45 61.7-5.7 62.2-4.95 62.8-4.67 63.4-4.4 63.95-4.4ZM101.44-26L101.44-26Q103.99-26 105.12-23.5 106.24-21 106.24-16.6L106.24-16.6Q106.24-13.75 105.74-10.75 105.24-7.75 104.04-5.3 102.84-2.85 100.87-1.28 98.89 0.3 95.94 0.3L95.94 0.3Q93.44 0.3 91.69-0.8 89.94-1.9 89.09-3.9L89.09-3.9Q88.44-2.5 87.64-1.68 86.84-0.85 85.99-0.4 85.14 0.05 84.29 0.18 83.44 0.3 82.69 0.3L82.69 0.3Q79.14 0.3 77.57-1.8 75.99-3.9 75.99-7.45L75.99-7.45 75.99-25 83.19-25 83.19-8Q83.19-6.1 83.72-5.33 84.24-4.55 85.24-4.55L85.24-4.55Q86.59-4.55 87.39-5.8 88.19-7.05 88.34-8.95L88.34-8.95 88.34-25 95.54-25 95.54-8Q95.54-6.2 96.04-5.38 96.54-4.55 97.69-4.55L97.69-4.55Q99.14-4.55 100.19-5.7 101.24-6.85 101.92-8.65 102.59-10.45 102.92-12.65 103.24-14.85 103.24-16.95L103.24-16.95Q103.24-19.25 102.84-21.25L102.84-21.25Q102.74-21 102.19-20.88 101.64-20.75 101.34-20.75L101.34-20.75Q100.79-20.75 100.37-21.05 99.94-21.35 99.62-21.83 99.29-22.3 99.12-22.85 98.94-23.4 98.94-23.9L98.94-23.9Q98.94-24.8 99.57-25.4 100.19-26 101.44-26ZM135.79-31L135.79-31Q134.19-31 132.19-31.33 130.19-31.65 128.04-32.1L128.04-32.1 128.04 0 120.79 0 120.79-33.1 120.29-33.1Q118.04-33.1 116.54-32.58 115.04-32.05 114.14-31.08 113.24-30.1 112.89-28.65 112.54-27.2 112.54-25.4L112.54-25.4Q112.54-23.75 112.77-22.75 112.99-21.75 113.29-21.13 113.59-20.5 113.89-20.18 114.19-19.85 114.39-19.6L114.39-19.6Q111.24-19.6 109.47-21.08 107.69-22.55 107.69-26.3L107.69-26.3Q107.69-28.65 108.49-30.7 109.29-32.75 111.07-34.25 112.84-35.75 115.67-36.6 118.49-37.45 122.59-37.45L122.59-37.45Q124.59-37.45 126.22-37.27 127.84-37.1 129.27-36.88 130.69-36.65 132.09-36.48 133.49-36.3 135.04-36.3L135.04-36.3Q137.14-36.3 138.57-36.63 139.99-36.95 140.94-37.35L140.94-37.35Q141.09-36.35 141.09-35.6L141.09-35.6Q141.09-33.35 139.87-32.18 138.64-31 135.79-31ZM142.64-25L149.84-25 149.84-8Q149.84-5.9 150.41-5.23 150.99-4.55 152.44-4.55L152.44-4.55Q153.89-4.55 154.86-5.8 155.84-7.05 155.99-8.95L155.99-8.95 158.09-8.95Q157.69-5.9 156.69-4.08 155.69-2.25 154.44-1.28 153.19-0.3 151.89 0 150.59 0.3 149.59 0.3L149.59 0.3Q145.74 0.3 144.19-1.83 142.64-3.95 142.64-7.45L142.64-7.45 142.64-25ZM142.09-31.65L142.09-31.65Q142.09-33.3 143.24-34.48 144.39-35.65 146.04-35.65L146.04-35.65Q147.69-35.65 148.86-34.48 150.04-33.3 150.04-31.65L150.04-31.65Q150.04-30 148.86-28.85 147.69-27.7 146.04-27.7L146.04-27.7Q144.39-27.7 143.24-28.85 142.09-30 142.09-31.65ZM181.09-15.1L181.09-15.1Q181.09-18.1 180.39-19.38 179.69-20.65 178.49-20.65L178.49-20.65Q177.04-20.65 176.36-19.28 175.69-17.9 175.54-16.05L175.54-16.05 175.54 0 168.34 0 168.34-17.25Q168.34-17.85 168.24-18.48 168.14-19.1 167.89-19.58 167.64-20.05 167.21-20.38 166.79-20.7 166.14-20.7L166.14-20.7Q164.79-20.7 164.06-19.33 163.34-17.95 163.19-16.05L163.19-16.05 163.19 0 155.99 0 155.99-25 163.19-25 163.19-22.4Q164.39-24.2 165.86-24.73 167.34-25.25 168.64-25.25L168.64-25.25Q170.49-25.25 172.09-24.35 173.69-23.45 174.69-20.95L174.69-20.95Q175.29-22.3 176.06-23.15 176.84-24 177.66-24.45 178.49-24.9 179.31-25.05 180.14-25.2 180.89-25.2L180.89-25.2Q182.29-25.2 183.56-24.75 184.84-24.3 185.81-23.23 186.79-22.15 187.34-20.38 187.89-18.6 187.89-16L187.89-16Q187.89-15.35 187.86-14.38 187.84-13.4 187.79-12.4 187.74-11.4 187.71-10.45 187.69-9.5 187.69-8.85L187.69-8.85Q187.69-6.7 188.21-5.63 188.74-4.55 190.29-4.55L190.29-4.55Q191.14-4.55 191.69-4.88 192.24-5.2 192.59-5.8 192.94-6.4 193.16-7.2 193.39-8 193.59-8.95L193.59-8.95 195.69-8.95Q195.29-6 194.49-4.17 193.69-2.35 192.69-1.35 191.69-0.35 190.51-0.03 189.34 0.3 188.19 0.3L188.19 0.3Q184.44 0.3 182.71-2.25 180.99-4.8 180.99-9.05L180.99-9.05Q180.99-9.5 181.01-10.33 181.04-11.15 181.04-12.05 181.04-12.95 181.06-13.8 181.09-14.65 181.09-15.1ZM204.98-3.9L204.98-3.9Q206.48-3.9 207.63-4.3 208.78-4.7 209.68-5.38 210.58-6.05 211.33-6.98 212.08-7.9 212.78-8.95L212.78-8.95 214.48-8.95Q213.78-7.2 212.81-5.55 211.83-3.9 210.41-2.6 208.98-1.3 207.08-0.5 205.18 0.3 202.63 0.3L202.63 0.3Q200.48 0.3 198.68-0.35 196.88-1 195.56-2.38 194.23-3.75 193.51-5.93 192.78-8.1 192.78-11.15L192.78-11.15Q192.78-13.3 193.26-15.78 193.73-18.25 194.93-20.35 196.13-22.45 198.18-23.85 200.23-25.25 203.38-25.25L203.38-25.25Q205.78-25.25 207.08-24.5 208.38-23.75 209.01-22.75 209.63-21.75 209.76-20.8 209.88-19.85 209.88-19.45L209.88-19.45Q209.88-17.2 209.06-15.5 208.23-13.8 206.86-12.63 205.48-11.45 203.71-10.83 201.93-10.2 200.08-10.1L200.08-10.1Q200.13-6.75 201.21-5.33 202.28-3.9 204.98-3.9ZM206.03-19.4L206.03-19.4Q206.03-21.15 205.43-21.88 204.83-22.6 204.13-22.6L204.13-22.6Q203.28-22.6 202.58-21.78 201.88-20.95 201.36-19.58 200.83-18.2 200.51-16.35 200.18-14.5 200.08-12.5L200.08-12.5Q201.33-12.6 202.43-13.18 203.53-13.75 204.33-14.68 205.13-15.6 205.58-16.8 206.03-18 206.03-19.4Z" opacity="1" transform="matrix(1,0,0,1,0,0)" fill="#ff6600" class="undefined-text-0" data-fill-palette-color="primary" id="text-0"></path>
                                                                                </svg>
                                                                            </g>
                                                                        </svg>
                                                                    </g>
                                                                </svg>
                                                            </g>
                                                        </svg>
                                                    </g>
                                                    <g transform="matrix(1,0,0,1,51.45120314123185,0)">
                                                        <svg viewBox="0 0 89.0975937175363 99.3826832479883" height="99.3826832479883" width="89.0975937175363">
                                                            <g>
                                                                <svg xmlns="http://www.w3.org/2000/svg"
                                                                    xmlns:xlink="http://www.w3.org/1999/xlink" version="1.1" x="0" y="0" viewBox="51 33.60000228881836 298 332.3999938964844" enable-background="new 0 0 400 400" xml:space="preserve" height="99.3826832479883" width="89.0975937175363" class="icon-icon-0" data-fill-palette-color="accent" id="icon-0">
                                                                    <path d="M320.6 269c0 5.8-4.7 10.5-10.5 10.5s-10.5-4.7-10.5-10.5 4.7-10.5 10.5-10.5S320.6 263.2 320.6 269zM349 165v201H51V165h64.1c2.7-14 17-27.1 37.2-33l-46.1-77.7c-0.7 0.1-1.4 0.3-2.1 0.3-5.8 0-10.5-4.6-10.5-10.5s4.7-10.5 10.5-10.5c5.8 0 10.5 4.8 10.5 10.6 0 2.6-0.9 5-2.5 6.8l47.1 79.8c6.4-1.4 13.2-2 20.3-2 7.5 0 14.6 0.8 21.2 2.4l33.4-44c-1.1-1.7-1.8-3.7-1.8-5.8 0-5.8 4.7-10.5 10.5-10.5 5.8 0 10.5 4.7 10.5 10.5s-4.7 10.5-10.5 10.5c-1.1 0-2.2-0.2-3.2-0.5l-31.5 41.5c-0.1 0-0.2-0.1-0.2-0.1l-0.2 0.3c0.1 0 0.2 0 0.2 0l0.2-0.4c18.6 6.1 32.1 18.4 35.6 32.4H349zM125.8 165h107.3c-5.4-14-27-26.9-53.4-26.9C152.6 138.1 130 151 125.8 165zM339 176H61v180h278V176zM276 200v132H82V200H276zM92.9 316.9L184.4 210H92v107.9L92.9 316.9zM266 210h-72.5l-95 111H266V210zM208.1 132.7l-0.2 0.3c0.1 0 0.2 0 0.2 0.1l0.2-0.3C208.2 132.7 208.1 132.7 208.1 132.7zM310.1 290.6c-5.8 0-10.5 4.7-10.5 10.5s4.7 10.5 10.5 10.5 10.5-4.7 10.5-10.5S315.9 290.6 310.1 290.6zM208.1 132.7l-0.2 0.3c0.1 0 0.2 0 0.2 0.1l0.2-0.3C208.2 132.7 208.1 132.7 208.1 132.7zM324.7 239.6h-29.2v6.9h29.2V239.6zM324.7 226.1h-29.2v6.9h29.2V226.1z" fill="#ea580c" data-fill-palette-color="accent"></path>
                                                                </svg>
                                                            </g>
                                                        </svg>
                                                    </g>
                                                    <g></g>
                                                </svg>
                                            </g>
                                        </svg>
                                    </g>
                                </svg>
                            </g>
                        </svg>
                    </g>
                    <defs></defs>
                </svg>
                <rect width="320" height="360" fill="none" stroke="none" visibility="hidden"></rect>
            </g>
        </svg>
    </g>
</svg>