<svg class="h-6 sm:h-9"
    xmlns="http://www.w3.org/2000/svg" version="1.1"
    xmlns:xlink="http://www.w3.org/1999/xlink"
    xmlns:svgjs="http://svgjs.dev/svgjs" viewBox="0 0 1000 156">
    <g transform="matrix(1,0,0,1,-0.6060606060606233,0.49288526823589507)">
        <svg viewBox="0 0 396 62" data-background-color="#ffffff" preserveAspectRatio="xMidYMid meet" height="156" width="1000"
            xmlns="http://www.w3.org/2000/svg"
            xmlns:xlink="http://www.w3.org/1999/xlink">
            <g id="tight-bounds" transform="matrix(1,0,0,1,0.2400000000000091,-0.19589029891426435)">
                <svg viewBox="0 0 395.52 62.39178059782852" height="62.39178059782852" width="395.52">
                    <g>
                        <svg viewBox="0 0 508.7637353646145 80.25555054864664" height="62.39178059782852" width="395.52">
                            <g>
                                <rect width="6.679671437322486" height="80.25555054864664" x="89.07801304424888" y="0" fill="#ff6600" opacity="1" stroke-width="0" stroke="transparent" fill-opacity="1" class="rect-in-0" data-fill-palette-color="primary" rx="1%" id="in-0" data-palette-color="#ff6600"></rect>
                            </g>
                            <g transform="matrix(1,0,0,1,113.24373536461451,0.19964067300657717)">
                                <svg viewBox="0 0 395.52 79.85626920263348" height="79.85626920263348" width="395.52">
                                    <g>
                                        <svg viewBox="0 0 395.52 79.85626920263348" height="79.85626920263348" width="395.52">
                                            <g>
                                                <svg viewBox="0 0 395.52 79.85626920263348" height="79.85626920263348" width="395.52">
                                                    <g transform="matrix(1,0,0,1,0,0)">
                                                        <svg width="395.52" viewBox="1.6499999999999961 -37.5 212.85 38.400000000000006" height="79.85626920263348" data-palette-color="#ff6600">
                                                            <svg></svg>
                                                            <g class="undefined-text-0" data-fill-palette-color="primary" id="text-0">
                                                                <path d="M22.8-31.2v0c0 1.267-0.273 2.29-0.82 3.07-0.553 0.787-1.347 1.18-2.38 1.18v0c-0.933 0-1.767-0.35-2.5-1.05v0c0.467-0.333 0.827-0.817 1.08-1.45 0.247-0.633 0.37-1.283 0.37-1.95v0c0-1.033-0.333-1.883-1-2.55-0.667-0.667-1.683-1-3.05-1v0c-1.5 0-2.583 0.417-3.25 1.25-0.667 0.833-1 1.95-1 3.35v0c0 1.633 0.393 2.967 1.18 4 0.78 1.033 1.753 1.957 2.92 2.77 1.167 0.82 2.427 1.597 3.78 2.33 1.347 0.733 2.603 1.6 3.77 2.6 1.167 1 2.143 2.207 2.93 3.62 0.78 1.42 1.17 3.23 1.17 5.43v0c0 1.867-0.307 3.467-0.92 4.8-0.62 1.333-1.463 2.423-2.53 3.27-1.067 0.853-2.333 1.473-3.8 1.86-1.467 0.38-3.067 0.57-4.8 0.57v0c-1.533 0-3.04-0.157-4.52-0.47-1.487-0.32-2.803-0.84-3.95-1.56-1.153-0.713-2.08-1.663-2.78-2.85-0.7-1.18-1.05-2.62-1.05-4.32v0c0-1.133 0.16-2.167 0.48-3.1 0.313-0.933 0.747-1.717 1.3-2.35 0.547-0.633 1.187-1.127 1.92-1.48 0.733-0.347 1.5-0.52 2.3-0.52v0c0.4 0 0.833 0.05 1.3 0.15 0.467 0.1 0.933 0.273 1.4 0.52 0.467 0.253 0.9 0.597 1.3 1.03 0.4 0.433 0.717 0.967 0.95 1.6v0c-0.6 0-1.2 0.067-1.8 0.2-0.6 0.133-1.14 0.367-1.62 0.7-0.487 0.333-0.88 0.79-1.18 1.37-0.3 0.587-0.45 1.33-0.45 2.23v0c0 1.733 0.533 2.973 1.6 3.72 1.067 0.753 2.4 1.13 4 1.13v0c1.6 0 2.833-0.383 3.7-1.15 0.867-0.767 1.3-2.083 1.3-3.95v0c0-1.733-0.36-3.2-1.08-4.4-0.713-1.2-1.62-2.25-2.72-3.15-1.1-0.9-2.273-1.743-3.52-2.53-1.253-0.78-2.43-1.63-3.53-2.55-1.1-0.913-2.007-1.987-2.72-3.22-0.72-1.233-1.08-2.75-1.08-4.55v0c0-2.9 0.967-5.11 2.9-6.63 1.933-1.513 4.567-2.27 7.9-2.27v0c0.467 0 1.177 0.04 2.13 0.12 0.947 0.087 1.897 0.337 2.85 0.75 0.947 0.42 1.77 1.053 2.47 1.9 0.7 0.853 1.05 2.03 1.05 3.53zM41.5-15.15v0c0-2-0.217-3.417-0.65-4.25-0.433-0.833-1.067-1.25-1.9-1.25v0c-0.5 0-0.923 0.133-1.27 0.4-0.353 0.267-0.647 0.617-0.88 1.05-0.233 0.433-0.417 0.923-0.55 1.47-0.133 0.553-0.217 1.113-0.25 1.68v0 16.05h-7.2v-34l7.2-1v12.6c0.767-1.167 1.633-1.927 2.6-2.28 0.967-0.347 1.883-0.52 2.75-0.52v0c0.933 0 1.827 0.15 2.68 0.45 0.847 0.3 1.597 0.807 2.25 1.52 0.647 0.72 1.153 1.67 1.52 2.85 0.367 1.187 0.55 2.647 0.55 4.38v0c0 0.433-0.007 0.973-0.02 1.62-0.02 0.653-0.047 1.313-0.08 1.98-0.033 0.667-0.057 1.317-0.07 1.95-0.02 0.633-0.03 1.167-0.03 1.6v0c0 1.433 0.177 2.507 0.53 3.22 0.347 0.72 1.037 1.08 2.07 1.08v0c0.567 0 1.033-0.11 1.4-0.33 0.367-0.213 0.667-0.52 0.9-0.92 0.233-0.4 0.427-0.867 0.58-1.4 0.147-0.533 0.287-1.117 0.42-1.75v0h2.1c-0.267 2-0.667 3.607-1.2 4.82-0.533 1.22-1.14 2.153-1.82 2.8-0.687 0.653-1.413 1.087-2.18 1.3-0.767 0.22-1.517 0.33-2.25 0.33v0c-2.567 0-4.423-0.85-5.57-2.55-1.153-1.7-1.73-3.967-1.73-6.8v0c0-0.3 0.01-0.727 0.03-1.28 0.013-0.547 0.02-1.12 0.02-1.72 0-0.6 0.01-1.183 0.03-1.75 0.013-0.567 0.02-1.017 0.02-1.35zM63.9-25.25v0c2.3 0 4.133 0.623 5.5 1.87 1.367 1.253 2.25 3.263 2.65 6.03v0h0.35c0.467 0 0.993-0.083 1.58-0.25 0.58-0.167 1.187-0.383 1.82-0.65 0.633-0.267 1.25-0.583 1.85-0.95 0.6-0.367 1.133-0.75 1.6-1.15v0l0.75 1.35c-0.367 0.533-0.823 1.017-1.37 1.45-0.553 0.433-1.18 0.823-1.88 1.17-0.7 0.353-1.433 0.653-2.2 0.9-0.767 0.253-1.533 0.447-2.3 0.58v0c0.033 0.233 0.05 0.457 0.05 0.67 0 0.22 0 0.447 0 0.68v0c0 1.933-0.167 3.74-0.5 5.42-0.333 1.687-0.89 3.153-1.67 4.4-0.787 1.253-1.797 2.237-3.03 2.95-1.233 0.72-2.75 1.08-4.55 1.08v0c-1.233 0-2.407-0.193-3.52-0.58-1.12-0.38-2.113-1.013-2.98-1.9-0.867-0.88-1.557-2.047-2.07-3.5-0.52-1.447-0.78-3.22-0.78-5.32v0c0-1.433 0.15-2.977 0.45-4.63 0.3-1.647 0.85-3.187 1.65-4.62 0.8-1.433 1.893-2.627 3.28-3.58 1.38-0.947 3.153-1.42 5.32-1.42zM63.95-4.4v0c0.7 0 1.31-0.243 1.83-0.73 0.513-0.48 0.937-1.147 1.27-2 0.333-0.847 0.577-1.853 0.73-3.02 0.147-1.167 0.22-2.433 0.22-3.8v0-0.75c-0.833-0.167-1.367-0.483-1.6-0.95-0.233-0.467-0.35-0.983-0.35-1.55v0c0-0.7 0.117-1.233 0.35-1.6 0.233-0.367 0.533-0.617 0.9-0.75v0c-0.367-1.133-0.807-1.867-1.32-2.2-0.52-0.333-0.963-0.5-1.33-0.5v0c-0.733 0-1.357 0.34-1.87 1.02-0.52 0.687-0.947 1.553-1.28 2.6-0.333 1.053-0.573 2.213-0.72 3.48-0.153 1.267-0.23 2.483-0.23 3.65v0c0 1.5 0.11 2.717 0.33 3.65 0.213 0.933 0.487 1.65 0.82 2.15 0.333 0.5 0.7 0.843 1.1 1.03 0.4 0.18 0.783 0.27 1.15 0.27zM101.45-26v0c1.7 0 2.927 0.833 3.68 2.5 0.747 1.667 1.12 3.967 1.12 6.9v0c0 1.9-0.167 3.85-0.5 5.85-0.333 2-0.9 3.817-1.7 5.45-0.8 1.633-1.857 2.973-3.17 4.02-1.32 1.053-2.963 1.58-4.93 1.58v0c-1.667 0-3.083-0.367-4.25-1.1-1.167-0.733-2.033-1.767-2.6-3.1v0c-0.433 0.933-0.917 1.673-1.45 2.22-0.533 0.553-1.083 0.98-1.65 1.28-0.567 0.3-1.133 0.493-1.7 0.58-0.567 0.08-1.1 0.12-1.6 0.12v0c-2.367 0-4.073-0.7-5.12-2.1-1.053-1.4-1.58-3.283-1.58-5.65v0-17.55h7.2v17c0 1.267 0.177 2.157 0.53 2.67 0.347 0.52 0.853 0.78 1.52 0.78v0c0.9 0 1.617-0.417 2.15-1.25 0.533-0.833 0.85-1.883 0.95-3.15v0-16.05h7.2v17c0 1.2 0.167 2.073 0.5 2.62 0.333 0.553 0.883 0.83 1.65 0.83v0c0.967 0 1.8-0.383 2.5-1.15 0.7-0.767 1.277-1.75 1.73-2.95 0.447-1.2 0.78-2.533 1-4 0.213-1.467 0.32-2.9 0.32-4.3v0c0-1.533-0.133-2.967-0.4-4.3v0c-0.067 0.167-0.283 0.29-0.65 0.37-0.367 0.087-0.65 0.13-0.85 0.13v0c-0.367 0-0.69-0.1-0.97-0.3-0.287-0.2-0.537-0.46-0.75-0.78-0.22-0.313-0.387-0.653-0.5-1.02-0.12-0.367-0.18-0.717-0.18-1.05v0c0-0.6 0.21-1.1 0.63-1.5 0.413-0.4 1.037-0.6 1.87-0.6zM135.8-31v0c-1.067 0-2.267-0.11-3.6-0.33-1.333-0.213-2.717-0.47-4.15-0.77v0 32.1h-7.25v-33.1h-0.5c-1.5 0-2.75 0.173-3.75 0.52-1 0.353-1.8 0.853-2.4 1.5-0.6 0.653-1.017 1.463-1.25 2.43-0.233 0.967-0.35 2.05-0.35 3.25v0c0 1.1 0.077 1.983 0.23 2.65 0.147 0.667 0.32 1.207 0.52 1.62 0.2 0.42 0.4 0.737 0.6 0.95 0.2 0.22 0.367 0.413 0.5 0.58v0c-2.1 0-3.74-0.493-4.92-1.48-1.187-0.98-1.78-2.72-1.78-5.22v0c0-1.567 0.267-3.033 0.8-4.4 0.533-1.367 1.393-2.55 2.58-3.55 1.18-1 2.713-1.783 4.6-2.35 1.88-0.567 4.187-0.85 6.92-0.85v0c1.333 0 2.543 0.06 3.63 0.18 1.08 0.113 2.097 0.243 3.05 0.39 0.947 0.153 1.887 0.287 2.82 0.4 0.933 0.12 1.917 0.18 2.95 0.18v0c1.4 0 2.577-0.11 3.53-0.33 0.947-0.213 1.737-0.453 2.37-0.72v0c0.1 0.667 0.15 1.25 0.15 1.75v0c0 1.5-0.407 2.64-1.22 3.42-0.82 0.787-2.18 1.18-4.08 1.18zM142.65-25h7.2v17c0 1.4 0.193 2.323 0.58 2.77 0.38 0.453 1.053 0.68 2.02 0.68v0c0.967 0 1.777-0.417 2.43-1.25 0.647-0.833 1.02-1.883 1.12-3.15v0h2.1c-0.267 2.033-0.733 3.657-1.4 4.87-0.667 1.22-1.417 2.153-2.25 2.8-0.833 0.653-1.683 1.08-2.55 1.28-0.867 0.2-1.633 0.3-2.3 0.3v0c-2.567 0-4.367-0.71-5.4-2.13-1.033-1.413-1.55-3.287-1.55-5.62v0zM142.1-31.65v0c0-1.1 0.383-2.043 1.15-2.83 0.767-0.78 1.7-1.17 2.8-1.17v0c1.1 0 2.043 0.39 2.83 1.17 0.78 0.787 1.17 1.73 1.17 2.83v0c0 1.1-0.39 2.033-1.17 2.8-0.787 0.767-1.73 1.15-2.83 1.15v0c-1.1 0-2.033-0.383-2.8-1.15-0.767-0.767-1.15-1.7-1.15-2.8zM181.1-15.1v0c0-2-0.233-3.427-0.7-4.28-0.467-0.847-1.1-1.27-1.9-1.27v0c-0.967 0-1.673 0.457-2.12 1.37-0.453 0.92-0.73 1.997-0.83 3.23v0 16.05h-7.2v-17.25c0-0.4-0.033-0.81-0.1-1.23-0.067-0.413-0.183-0.78-0.35-1.1-0.167-0.313-0.393-0.58-0.68-0.8-0.28-0.213-0.637-0.32-1.07-0.32v0c-0.9 0-1.59 0.457-2.07 1.37-0.487 0.92-0.78 2.013-0.88 3.28v0 16.05h-7.2v-25h7.2v2.6c0.8-1.2 1.693-1.977 2.68-2.33 0.98-0.347 1.903-0.52 2.77-0.52v0c1.233 0 2.383 0.3 3.45 0.9 1.067 0.6 1.933 1.733 2.6 3.4v0c0.4-0.9 0.86-1.633 1.38-2.2 0.513-0.567 1.047-1 1.6-1.3 0.547-0.3 1.097-0.5 1.65-0.6 0.547-0.1 1.07-0.15 1.57-0.15v0c0.933 0 1.827 0.15 2.68 0.45 0.847 0.3 1.597 0.807 2.25 1.52 0.647 0.72 1.153 1.67 1.52 2.85 0.367 1.187 0.55 2.647 0.55 4.38v0c0 0.433-0.007 0.973-0.02 1.62-0.02 0.653-0.047 1.313-0.08 1.98-0.033 0.667-0.057 1.317-0.07 1.95-0.02 0.633-0.03 1.167-0.03 1.6v0c0 1.433 0.177 2.507 0.53 3.22 0.347 0.72 1.037 1.08 2.07 1.08v0c0.567 0 1.033-0.11 1.4-0.33 0.367-0.213 0.667-0.52 0.9-0.92 0.233-0.4 0.427-0.867 0.58-1.4 0.147-0.533 0.287-1.117 0.42-1.75v0h2.1c-0.267 1.967-0.667 3.56-1.2 4.78-0.533 1.213-1.133 2.153-1.8 2.82-0.667 0.667-1.39 1.107-2.17 1.32-0.787 0.22-1.563 0.33-2.33 0.33v0c-2.5 0-4.323-0.85-5.47-2.55-1.153-1.7-1.73-3.967-1.73-6.8v0c0-0.3 0.01-0.727 0.03-1.28 0.013-0.547 0.02-1.12 0.02-1.72 0-0.6 0.01-1.183 0.03-1.75 0.013-0.567 0.02-1 0.02-1.3zM205-3.9v0c1 0 1.883-0.133 2.65-0.4 0.767-0.267 1.45-0.627 2.05-1.08 0.6-0.447 1.15-0.98 1.65-1.6 0.5-0.613 0.983-1.27 1.45-1.97v0h1.7c-0.467 1.167-1.027 2.3-1.68 3.4-0.647 1.1-1.443 2.083-2.39 2.95-0.953 0.867-2.063 1.567-3.33 2.1-1.267 0.533-2.75 0.8-4.45 0.8v0c-1.433 0-2.75-0.217-3.95-0.65-1.2-0.433-2.243-1.11-3.13-2.03-0.88-0.913-1.56-2.097-2.04-3.55-0.487-1.447-0.73-3.187-0.73-5.22v0c0-1.433 0.16-2.977 0.48-4.63 0.313-1.647 0.87-3.17 1.67-4.57 0.8-1.4 1.883-2.567 3.25-3.5 1.367-0.933 3.1-1.4 5.2-1.4v0c1.6 0 2.833 0.25 3.7 0.75 0.867 0.5 1.51 1.083 1.93 1.75 0.413 0.667 0.663 1.317 0.75 1.95 0.08 0.633 0.12 1.083 0.12 1.35v0c0 1.5-0.277 2.817-0.83 3.95-0.547 1.133-1.277 2.09-2.19 2.87-0.92 0.787-1.973 1.387-3.16 1.8-1.18 0.42-2.387 0.663-3.62 0.73v0c0.033 2.233 0.407 3.823 1.12 4.77 0.72 0.953 1.98 1.43 3.78 1.43zM206.05-19.4v0c0-1.167-0.2-1.993-0.6-2.48-0.4-0.48-0.833-0.72-1.3-0.72v0c-0.567 0-1.083 0.273-1.55 0.82-0.467 0.553-0.873 1.287-1.22 2.2-0.353 0.92-0.637 1.997-0.85 3.23-0.22 1.233-0.363 2.517-0.43 3.85v0c0.833-0.067 1.617-0.293 2.35-0.68 0.733-0.38 1.367-0.88 1.9-1.5 0.533-0.613 0.95-1.32 1.25-2.12 0.3-0.8 0.45-1.667 0.45-2.6z" fill="#ff6600" fill-rule="nonzero" stroke="none" stroke-width="1" stroke-linecap="butt" stroke-linejoin="miter" stroke-miterlimit="10" stroke-dasharray="" stroke-dashoffset="0" font-family="none" font-weight="none" font-size="none" text-anchor="none" style="mix-blend-mode: normal" data-fill-palette-color="primary" opacity="1"></path>
                                                            </g>
                                                        </svg>
                                                    </g>
                                                </svg>
                                            </g>
                                        </svg>
                                    </g>
                                </svg>
                            </g>
                            <g transform="matrix(1,0,0,1,0,0.19964067300657717)">
                                <svg viewBox="0 0 71.59196216120571 79.85626920263348" height="79.85626920263348" width="71.59196216120571">
                                    <g>
                                        <svg xmlns="http://www.w3.org/2000/svg"
                                            xmlns:xlink="http://www.w3.org/1999/xlink" version="1.1" x="0" y="0" viewBox="51 33.599999999999994 298 332.4" enable-background="new 0 0 400 400" xml:space="preserve" height="79.85626920263348" width="71.59196216120571" class="icon-icon-0 fill-yellow-500 dark:fill-yellow-300" data-fill-palette-color="accent" id="icon-0">
                                            <path d="M320.6 269c0 5.8-4.7 10.5-10.5 10.5s-10.5-4.7-10.5-10.5 4.7-10.5 10.5-10.5S320.6 263.2 320.6 269zM349 165v201H51V165h64.1c2.7-14 17-27.1 37.2-33l-46.1-77.7c-0.7 0.1-1.4 0.3-2.1 0.3-5.8 0-10.5-4.6-10.5-10.5s4.7-10.5 10.5-10.5c5.8 0 10.5 4.8 10.5 10.6 0 2.6-0.9 5-2.5 6.8l47.1 79.8c6.4-1.4 13.2-2 20.3-2 7.5 0 14.6 0.8 21.2 2.4l33.4-44c-1.1-1.7-1.8-3.7-1.8-5.8 0-5.8 4.7-10.5 10.5-10.5 5.8 0 10.5 4.7 10.5 10.5s-4.7 10.5-10.5 10.5c-1.1 0-2.2-0.2-3.2-0.5l-31.5 41.5c-0.1 0-0.2-0.1-0.2-0.1l-0.2 0.3c0.1 0 0.2 0 0.2 0l0.2-0.4c18.6 6.1 32.1 18.4 35.6 32.4H349zM125.8 165h107.3c-5.4-14-27-26.9-53.4-26.9C152.6 138.1 130 151 125.8 165zM339 176H61v180h278V176zM276 200v132H82V200H276zM92.9 316.9L184.4 210H92v107.9L92.9 316.9zM266 210h-72.5l-95 111H266V210zM208.1 132.7l-0.2 0.3c0.1 0 0.2 0 0.2 0.1l0.2-0.3C208.2 132.7 208.1 132.7 208.1 132.7zM310.1 290.6c-5.8 0-10.5 4.7-10.5 10.5s4.7 10.5 10.5 10.5 10.5-4.7 10.5-10.5S315.9 290.6 310.1 290.6zM208.1 132.7l-0.2 0.3c0.1 0 0.2 0 0.2 0.1l0.2-0.3C208.2 132.7 208.1 132.7 208.1 132.7zM324.7 239.6h-29.2v6.9h29.2V239.6zM324.7 226.1h-29.2v6.9h29.2V226.1z" fill="" data-fill-palette-color="accent"></path>
                                        </svg>
                                    </g>
                                </svg>
                            </g>
                        </svg>
                    </g>
                    <defs></defs>
                </svg>
                <rect width="395.52" height="62.39178059782852" fill="none" stroke="none" visibility="hidden"></rect>
            </g>
        </svg>
    </g>
</svg>